<?xml version="1.0" standalone="no"?>
<!DOCTYPE svg PUBLIC "-//W3C//DTD SVG 20010904//EN"
 "http://www.w3.org/TR/2001/REC-SVG-20010904/DTD/svg10.dtd">
<svg version="1.0" xmlns="http://www.w3.org/2000/svg"
 width="16.000000pt" height="16.000000pt" viewBox="0 0 16.000000 16.000000"
 preserveAspectRatio="xMidYMid meet">
<metadata>
Created by potrace 1.11, written by Peter Selinger 2001-2013
</metadata>
<g transform="translate(0.000000,16.000000) scale(0.006154,-0.006154)"
fill="#000000" stroke="none">
<path d="M1178 2574 c-2 -1 -30 -4 -63 -8 -33 -3 -71 -7 -85 -10 -23 -4 -63
-10 -128 -21 -59 -10 -132 -37 -174 -65 -37 -25 -49 -39 -54 -67 -9 -47 8 -75
78 -132 92 -74 115 -147 70 -223 -13 -22 -22 -26 -50 -24 -27 2 -43 -4 -67
-26 -39 -34 -58 -35 -82 -5 -20 25 -52 42 -103 55 -55 14 -92 6 -121 -26 l-27
-30 -32 29 c-17 16 -34 29 -38 30 -4 0 -18 3 -32 5 -60 11 -111 -48 -105 -121
2 -16 3 -36 4 -43 1 -8 14 -27 30 -43 21 -21 39 -29 65 -29 19 0 37 4 40 9 3
5 15 11 26 14 16 4 24 -3 38 -28 9 -19 33 -44 52 -57 44 -30 64 -70 64 -128 0
-64 -14 -280 -19 -304 -6 -30 -14 -82 -21 -154 -6 -54 -9 -62 -28 -63 -11 0
-28 -2 -36 -3 -8 -2 -53 -6 -100 -10 -47 -3 -96 -8 -110 -10 -14 -2 -52 -7
-84 -11 -33 -4 -65 -9 -72 -12 -11 -4 -13 -107 -13 -534 l0 -529 1075 0 c651
0 1073 4 1070 9 -4 5 -18 49 -31 98 -14 48 -28 95 -32 103 -3 8 -7 20 -8 25
-2 6 -14 34 -27 64 -21 43 -25 66 -22 123 2 46 -3 82 -13 106 -9 20 -26 75
-38 122 -13 47 -30 98 -39 114 -21 40 -106 127 -118 120 -5 -3 -14 -1 -21 5
-19 15 -259 103 -281 103 -10 -1 -28 5 -40 12 -11 8 -44 21 -71 30 l-50 16
-13 65 c-6 35 -12 74 -12 85 0 25 -33 92 -54 109 -12 10 -13 18 -5 39 23 60
59 74 139 52 19 -5 46 -11 60 -14 14 -3 45 -9 70 -14 25 -6 81 -18 125 -27
112 -24 375 -94 398 -106 10 -6 27 -30 37 -53 18 -42 19 -43 77 -49 32 -3 76
-13 96 -22 34 -14 39 -14 63 1 14 10 37 40 51 67 14 28 40 73 58 101 29 44 34
62 39 131 3 44 9 98 15 120 13 51 24 130 25 177 1 21 5 38 9 38 8 0 3 61 -9
123 -6 27 -7 28 -30 13 -13 -9 -29 -16 -36 -16 -7 0 -23 -12 -36 -27 -15 -18
-20 -21 -13 -8 12 26 49 60 57 52 3 -3 11 -1 18 4 6 5 19 15 29 22 16 11 14
15 -20 54 -38 42 -65 54 -155 68 -29 5 -40 2 -57 -16 -12 -13 -21 -26 -21 -29
0 -6 -71 -35 -81 -33 -3 1 -32 4 -65 8 -32 3 -84 10 -114 15 -30 5 -75 12
-100 15 -25 3 -63 8 -85 11 -22 3 -53 8 -70 10 -16 2 -39 5 -50 7 -11 3 -42 8
-70 11 -126 17 -176 26 -187 32 -4 3 3 27 17 53 23 47 70 95 160 163 59 45 68
65 45 114 -34 77 -84 114 -192 143 -84 23 -278 46 -290 35z m-880 -617 c18
-19 20 -26 9 -39 -32 -40 -67 -25 -67 29 0 40 25 45 58 10z m353 -216 c9 -20
29 -39 47 -47 21 -8 33 -22 38 -41 21 -95 25 -104 64 -129 22 -15 52 -26 67
-26 37 0 63 -24 63 -58 0 -32 -11 -42 -64 -61 -21 -8 -57 -30 -80 -50 -23 -19
-56 -45 -73 -58 -18 -12 -33 -31 -33 -41 0 -20 -54 -70 -76 -70 -8 0 -14 -4
-14 -10 0 -5 -7 -10 -16 -10 -10 0 -14 6 -10 18 2 9 7 40 11 67 3 28 8 57 10
65 10 39 18 170 21 320 1 91 2 167 3 168 4 12 29 -10 42 -37z m1672 -425 c-10
-13 -20 -22 -22 -20 -4 4 29 44 36 44 2 0 -4 -11 -14 -24z"/>
</g>
</svg>
